<svg width="4" height="18" viewBox="0 0 4 18" fill="none" xmlns="http://www.w3.org/2000/svg">
<path d="M1.72727 2.45455C1.32561 2.45455 1 2.12893 1 1.72727C1 1.32561 1.32561 1 1.72727 1C2.12894 1 2.45455 1.32561 2.45455 1.72727C2.45455 2.12893 2.12893 2.45455 1.72727 2.45455Z" stroke="#2B4B51" stroke-width="1.4"/>
<path d="M1.72727 9.72727C1.32561 9.72727 1 9.40166 1 9C1 8.59834 1.32561 8.27273 1.72727 8.27273C2.12893 8.27273 2.45455 8.59834 2.45455 9C2.45455 9.40166 2.12893 9.72727 1.72727 9.72727Z" stroke="#2B4B51" stroke-width="1.4"/>
<path d="M1.72727 17C1.32561 17 1 16.6744 1 16.2727C1 15.8711 1.32561 15.5455 1.72727 15.5455C2.12893 15.5455 2.45455 15.8711 2.45455 16.2727C2.45455 16.6744 2.12893 17 1.72727 17Z" stroke="#2B4B51" stroke-width="1.4"/>
</svg>
