<svg width="13" height="12" viewBox="0 0 13 12" fill="none" xmlns="http://www.w3.org/2000/svg">
<path fill-rule="evenodd" clip-rule="evenodd" d="M10.4142 7.02678C11.6562 7.02678 12.6667 8.03216 12.6667 9.26771C12.6667 10.5033 11.6562 11.5086 10.4142 11.5086C9.17137 11.5086 8.1602 10.5033 8.1602 9.26771C8.1602 8.03216 9.17137 7.02678 10.4142 7.02678ZM10.4142 8.1125C9.76996 8.1125 9.24592 8.63075 9.24592 9.26771C9.24592 9.90539 9.76996 10.4229 10.4142 10.4229C11.0576 10.4229 11.5809 9.90539 11.5809 9.26771C11.5809 8.63075 11.0576 8.1125 10.4142 8.1125ZM5.12482 8.75293C5.42448 8.75293 5.66768 8.99614 5.66768 9.29579C5.66768 9.59545 5.42448 9.83866 5.12482 9.83866H0.564068C0.264409 9.83866 0.0212077 9.59545 0.0212077 9.29579C0.0212077 8.99614 0.264409 8.75293 0.564068 8.75293H5.12482ZM2.25323 0C3.49602 0 4.50646 1.0061 4.50646 2.24165C4.50646 3.4772 3.49602 4.48185 2.25323 4.48185C1.01117 4.48185 0 3.4772 0 2.24165C0 1.0061 1.01117 0 2.25323 0ZM2.25323 1.08572C1.60976 1.08572 1.08572 1.60397 1.08572 2.24165C1.08572 2.87861 1.60976 3.39613 2.25323 3.39613C2.89743 3.39613 3.42074 2.87861 3.42074 2.24165C3.42074 1.60397 2.89743 1.08572 2.25323 1.08572ZM11.7193 1.73744C12.019 1.73744 12.2622 1.98064 12.2622 2.2803C12.2622 2.57996 12.019 2.82316 11.7193 2.82316H7.15931C6.85965 2.82316 6.61645 2.57996 6.61645 2.2803C6.61645 1.98064 6.85965 1.73744 7.15931 1.73744H11.7193Z" fill="white"/>
</svg>
