<svg width="17" height="16" viewBox="0 0 17 16" fill="none" xmlns="http://www.w3.org/2000/svg">
<path d="M16.5566 8C16.5566 3.58172 12.9749 0 8.55664 0C4.13836 0 0.556641 3.58172 0.556641 8C0.556641 12.4183 4.13836 16 8.55664 16C12.9749 16 16.5566 12.4183 16.5566 8Z" fill="#2B4B51"/>
<path d="M11.0971 11.0474C10.9447 11.0474 10.8431 10.9966 10.7415 10.895L8.55738 8.71088L6.37326 10.895C6.1701 11.0982 5.86534 11.0982 5.66214 10.895C5.45898 10.6918 5.45898 10.3871 5.66214 10.1839L7.84629 7.99976L5.66214 5.81564C5.45898 5.61244 5.45898 5.30768 5.66214 5.10452C5.86534 4.90136 6.1701 4.90136 6.37326 5.10452L8.55738 7.28863L10.7415 5.10452C10.9447 4.90136 11.2495 4.90136 11.4526 5.10452C11.6558 5.30768 11.6558 5.61244 11.4526 5.81564L9.2685 7.99976L11.4526 10.1839C11.6558 10.3871 11.6558 10.6918 11.4526 10.895C11.3511 10.9966 11.2495 11.0474 11.0971 11.0474Z" fill="white"/>
</svg>
