<svg width="21" height="20" viewBox="0 0 21 20" fill="none" xmlns="http://www.w3.org/2000/svg">
<path fill-rule="evenodd" clip-rule="evenodd" d="M1.94501 1.17187C0.773438 2.34344 0.773438 4.22906 0.773438 8.0003V12.0003C0.773438 15.7715 0.773438 17.6572 1.94501 18.8287C3.11658 20.0003 5.0022 20.0003 8.77344 20.0003H12.7734C16.5447 20.0003 18.4303 20.0003 19.6019 18.8287C20.7734 17.6572 20.7734 15.7715 20.7734 12.0003V12.0003V8.0003C20.7734 5.16096 20.7734 3.39048 20.2734 2.18886V15.0003C19.313 15.0003 18.3919 14.6188 17.7128 13.9396L16.9611 13.188C16.2398 12.4667 15.8792 12.106 15.4702 11.954C15.0207 11.787 14.5262 11.787 14.0767 11.954C13.6677 12.106 13.3071 12.4667 12.5858 13.188L12.4726 13.3011L12.4726 13.3011C11.8873 13.8865 11.5946 14.1791 11.2836 14.2337C11.0419 14.2761 10.7931 14.2282 10.5844 14.0991C10.316 13.9329 10.1529 13.5525 9.82684 12.7916L9.77344 12.667C9.0238 10.9178 8.64898 10.0432 7.99511 9.71544C7.66592 9.55041 7.29756 9.47947 6.93063 9.51044C6.2018 9.57194 5.52897 10.2448 4.18333 11.5904L2.27344 13.5003V0.887695C2.15784 0.973796 2.04863 1.06825 1.94501 1.17187Z" fill="#FEDA50"/>
<path d="M1.77344 8C1.77344 6.08611 1.77556 4.75129 1.91097 3.74416C2.0425 2.76579 2.2831 2.2477 2.65212 1.87868C3.02113 1.50966 3.53923 1.26907 4.5176 1.13753C5.52473 1.00212 6.85955 1 8.77344 1H12.7734C14.6873 1 16.0221 1.00212 17.0293 1.13753C18.0076 1.26907 18.5257 1.50966 18.8948 1.87868C19.2638 2.2477 19.5044 2.76579 19.6359 3.74416C19.7713 4.75129 19.7734 6.08611 19.7734 8V12C19.7734 13.9139 19.7713 15.2487 19.6359 16.2558C19.5044 17.2342 19.2638 17.7523 18.8948 18.1213C18.5257 18.4903 18.0076 18.7309 17.0293 18.8625C16.0221 18.9979 14.6873 19 12.7734 19H8.77344C6.85955 19 5.52473 18.9979 4.5176 18.8625C3.53923 18.7309 3.02113 18.4903 2.65212 18.1213C2.2831 17.7523 2.0425 17.2342 1.91097 16.2558C1.77556 15.2487 1.77344 13.9139 1.77344 12V8Z" stroke="#FEDA50" stroke-width="2"/>
<circle cx="13.7734" cy="7" r="2" fill="#FEDA50"/>
</svg>
