<svg width="18" height="12" viewBox="0 0 18 12" fill="none" xmlns="http://www.w3.org/2000/svg">
<path fill-rule="evenodd" clip-rule="evenodd" d="M17.2729 0H0.727102C0.325547 0 0 0.447732 0 1C0 1.55227 0.325547 2 0.727102 2H17.2729C17.6745 2 18 1.55227 18 1C18 0.447732 17.6745 0 17.2729 0ZM17.2729 5H0.727102C0.325547 5 0 5.44768 0 6C0 6.55232 0.325547 7 0.727102 7H17.2729C17.6745 7 18 6.55232 18 6C18 5.44773 17.6745 5 17.2729 5ZM0.727102 10H17.2729C17.6745 10 18 10.4477 18 11C18 11.5523 17.6745 12 17.2729 12H0.727102C0.325547 12 0 11.5523 0 11C0 10.4477 0.325547 10 0.727102 10Z" fill="white"/>
</svg>
