<svg width="16" height="20" viewBox="0 0 16 20" fill="none" xmlns="http://www.w3.org/2000/svg">
<path fill-rule="evenodd" clip-rule="evenodd" d="M13.5248 9.68028V8.10221C13.5248 5.59191 11.7442 3.48523 9.34101 2.90414V1.30032C9.34101 0.58218 8.74064 0 8.00005 0C7.25947 0 6.6591 0.58218 6.6591 1.30032V2.90409C4.25594 3.48518 2.47531 5.59191 2.47531 8.10215V9.68022C2.47531 11.3674 1.78413 12.9854 0.553879 14.1785C0.0130982 14.7029 -0.148675 15.4915 0.143976 16.1766C0.436626 16.8618 1.12609 17.3085 1.89087 17.3085H5.22438C5.22438 18.795 6.46707 20 8 20C9.53293 20 10.7756 18.795 10.7756 17.3085H14.1091C14.8739 17.3085 15.5634 16.8617 15.856 16.1766C16.1487 15.4915 15.9869 14.7029 15.4461 14.1785C14.2159 12.9855 13.5248 11.3674 13.5248 9.68028ZM8.00004 18.4395C7.35681 18.4395 6.83357 17.932 6.83357 17.3083H9.16657C9.16652 17.9321 8.64322 18.4395 8.00004 18.4395ZM14.1099 15.7478C14.2242 15.7478 14.3264 15.6816 14.3701 15.5791C14.4139 15.4767 14.3899 15.3599 14.309 15.2815C12.766 13.7853 11.9163 11.7959 11.9163 9.67994V8.10187C11.9163 6.00825 10.1597 4.30493 8.00068 4.30493C5.84164 4.30493 4.08509 6.00825 4.08509 8.10187V9.67994C4.08509 11.796 3.23535 13.7853 1.69234 15.2815C1.61151 15.3599 1.58753 15.4768 1.6313 15.5792C1.67507 15.6816 1.77719 15.7478 1.89155 15.7478H14.1099Z" fill="white"/>
</svg>
