<svg width="24" height="24" viewBox="0 0 24 24" fill="none" xmlns="http://www.w3.org/2000/svg">
<path d="M22.3909 5.97644C21.3178 4.13802 19.8622 2.68243 18.0238 1.60938C16.185 0.536387 14.1777 0 12.0003 0C9.8232 0 7.81529 0.536387 5.97682 1.60938C4.13824 2.68226 2.68265 4.13786 1.60954 5.97644C0.536387 7.81513 0 9.82304 0 12C0 14.1771 0.536551 16.1847 1.60938 18.0235C2.68243 19.8619 4.13802 21.3175 5.9766 22.3906C7.81529 23.4636 9.82304 24 12.0001 24C14.1772 24 16.1851 23.4636 18.0237 22.3906C19.8622 21.3178 21.3177 19.8619 22.3907 18.0235C23.4636 16.1848 23.9999 14.177 23.9999 12C23.9999 9.82282 23.4636 7.81486 22.3909 5.97644ZM19.0003 13C19.0003 13.2708 18.9012 13.5055 18.7033 13.7031C18.5052 13.9009 18.2709 14.0001 18.0002 14.0001H14.0001V17.9999C14.0001 18.2707 13.9009 18.5051 13.703 18.7033C13.5053 18.9011 13.2708 19 12.9999 19H11C10.7292 19 10.4948 18.9011 10.2969 18.7033C10.099 18.5052 9.99997 18.2707 9.99997 17.9999V14.0001H5.99997C5.72918 14.0001 5.49489 13.9009 5.29688 13.7031C5.09899 13.5055 5.00004 13.2708 5.00004 13V10.9998C5.00004 10.7291 5.09904 10.4947 5.29688 10.2968C5.49483 10.0988 5.72913 9.99981 5.99997 9.99981H10.0001V5.99981C10.0001 5.72896 10.0991 5.49473 10.2971 5.29672C10.495 5.09882 10.7293 4.99988 11.0002 4.99988H13.0003C13.2711 4.99988 13.5056 5.09888 13.7034 5.29672C13.9012 5.49467 14.0005 5.72896 14.0005 5.99981V9.99981H18.0002C18.271 9.99981 18.5054 10.0988 18.7033 10.2968C18.9012 10.4946 19.0003 10.729 19.0003 10.9998V13Z" fill="white"/>
</svg>
